<svg preserveAspectRatio="xMidYMid meet" data-bbox="12 11 176 177.997" viewBox="12 11 176 177.997" height="200" width="200" xmlns="http://www.w3.org/2000/svg" data-type="color" role="presentation" aria-hidden="true"><defs><style>#comp-l5qh4kcf svg [data-color="1"] {fill: #242323;}</style></defs>
    <g>
        <path d="M182.467 78.781s-12.771 12.748-15.796 30.634c-3.025 17.886 5.995 31.497 4.841 34.136-1.154 2.639 12.771-12.748 15.796-30.634 3.025-17.886-4.841-34.136-4.841-34.136z" fill="#BDD9D9" data-color="1"></path>
        <path d="M130.078 41.997c-3.304 17.836 5.501 31.587 4.306 34.208s12.968-12.546 16.273-30.383c3.305-17.836-4.306-34.208-4.306-34.208s-12.968 12.547-16.273 30.383z" fill="#BDD9D9" data-color="1"></path>
        <path d="M57.701 41.32c13.057 12.571 29.365 12.763 30.893 15.204 1.529 2.441-3.332-17.749-16.389-30.32C59.149 13.633 41.312 11 41.312 11s3.332 17.749 16.389 30.32z" fill="#BDD9D9" data-color="1"></path>
        <path d="M77.255 64.922c2.707.974-13.564-11.898-31.584-13.707C27.652 49.405 12 58.369 12 58.369s13.564 11.898 31.584 13.707c18.019 1.81 30.964-8.128 33.671-7.154z" fill="#BDD9D9" data-color="1"></path>
        <path d="M87.119 115.779c2.659 1.099-12.996-12.518-30.912-15.167-17.916-2.649-33.968 5.575-33.968 5.575s12.996 12.518 30.912 15.167c17.916 2.648 31.309-6.674 33.968-5.575z" fill="#BDD9D9" data-color="1"></path>
        <path d="M72.554 123.489c-10.552 2.94-17.41 11.431-17.41 11.431s10.25 3.725 20.802.785 15.671-11.385 17.41-11.431c1.739-.046-10.25-3.725-20.802-.785z" fill="#BDD9D9" data-color="1"></path>
        <path d="M171.904 139.113c-.959 6.024-2.069 12.914-6.151 17.694-1.383-2.969-2.885-5.889-4.4-8.754a342.135 342.135 0 0 0-24.401-39.387 340.802 340.802 0 0 0-4.378-5.951c1.296-17.828 4.095-35.497 8.617-52.794.313-1.198-1.537-1.709-1.85-.511-4.371 16.72-7.121 33.797-8.496 51.017-16.523-21.642-35.565-41.255-56.656-58.485-.949-.775-2.315.577-1.357 1.359A353.47 353.47 0 0 1 98.97 66.952c-16.246-2.946-32.669-4.535-49.19-4.623-1.235-.007-1.236 1.916 0 1.922 17.313.092 34.516 1.812 51.521 5.066 11.319 11.52 21.865 23.798 31.459 36.828 4.895 6.649 9.52 13.494 13.925 20.478-26.212-5.387-52.449-10.648-78.66-16.041-1.205-.248-1.721 1.604-.51 1.853 12.472 2.566 24.95 5.099 37.429 7.633-8.945 2.508-17.924 4.891-26.953 7.081-1.2.291-.692 2.145.51 1.853 10.133-2.458 20.205-5.148 30.235-7.999.091-.026.153-.074.224-.116 13.045 2.648 26.089 5.297 39.127 7.979 2.571 4.147 5.086 8.328 7.479 12.581 7.811 13.887 17.428 29.814 13.746 46.35-.268 1.205 1.581 1.72 1.85.511 2.308-10.365-.395-20.235-4.545-29.601 4.403-4.681 5.822-11.373 6.883-17.524 1.935-11.231 2.689-22.673 3.982-33.988.14-1.227-1.78-1.217-1.919 0" fill="#014D5F" data-color="2"></path>
    </g>
</svg>